<?xml version="1.0" encoding="utf-8"?>
<!-- Generator: Adobe Illustrator 23.0.5, SVG Export Plug-In . SVG Version: 6.00 Build 0)  -->
<svg version="1.1" id="Layer_1" xmlns="http://www.w3.org/2000/svg" xmlns:xlink="http://www.w3.org/1999/xlink" x="0px" y="0px"
	 viewBox="0 0 1080 1080" style="enable-background:new 0 0 1080 1080;" xml:space="preserve">
<style type="text/css">
	.st0{fill:#FFFFFF;}
	.st1{fill:url(#SVGID_1_);}
	.st2{fill:url(#SVGID_2_);}
</style>
<circle class="st0" cx="540" cy="540" r="540"/>
<g>
	<linearGradient id="SVGID_1_" gradientUnits="userSpaceOnUse" x1="109.9089" y1="540.0872" x2="585.8545" y2="540.0872">
		<stop  offset="0" style="stop-color:#885C97"/>
		<stop  offset="1" style="stop-color:#2D4091"/>
	</linearGradient>
	<path class="st1" d="M109.9,543.5c-0.1,83.5,30.6,154.7,80.4,199.1c56.3,50.3,128.6,70.9,216.3,70.9c77.9,0,144.4-17.7,177.9-29.5
		l1.3,0.1L478.3,480.3l32.8,261.5c-17.3,8.1-50.4,14.5-99.3,14.5c-135.3,0-223.3-80.5-223.3-216.4c0-134.3,92-215.3,232.4-215.3
		c3.6,0,7.2,0,10.7,0.1l-21.1-58.1C223.9,271.4,110.2,386.9,109.9,543.5z"/>
	<linearGradient id="SVGID_2_" gradientUnits="userSpaceOnUse" x1="489.4824" y1="540" x2="970.0911" y2="540">
		<stop  offset="0" style="stop-color:#885C97"/>
		<stop  offset="1" style="stop-color:#2D4091"/>
	</linearGradient>
	<path class="st2" d="M886.3,266.4L783.8,537.1c-27.2,71.2-52.1,140-69.1,203.3h-2.1c-16.4-63.7-38.8-130.4-64.9-204.1l-69.5-198.8
		c-23.7-7-52.1-11.9-88.8-12.7L667,813.6h86.4l216.7-547.1H886.3z"/>
</g>
</svg>
